<svg width="20" height="20" viewBox="0 0 24 25" fill="none" xmlns="http://www.w3.org/2000/svg">
<path d="M21 11.475V8.5C21 7.96957 20.7893 7.46086 20.4142 7.08579C20.0391 6.71072 19.5304 6.5 19 6.5H13V5.188C13.305 4.914 13.5 4.52 13.5 4.078C13.5 3.68018 13.342 3.29865 13.0607 3.01734C12.7794 2.73604 12.3978 2.578 12 2.578C11.6022 2.578 11.2206 2.73604 10.9393 3.01734C10.658 3.29865 10.5 3.68018 10.5 4.078C10.5 4.52 10.695 4.914 11 5.188V6.5H5C4.46957 6.5 3.96086 6.71072 3.58579 7.08579C3.21071 7.46086 3 7.96957 3 8.5V11.498L2.928 11.503C2.67589 11.521 2.43996 11.6338 2.26775 11.8188C2.09554 12.0038 1.99987 12.2473 2 12.5V14.5C2 14.7652 2.10536 15.0196 2.29289 15.2071C2.48043 15.3946 2.73478 15.5 3 15.5V20.5C3 21.0304 3.21071 21.5391 3.58579 21.9142C3.96086 22.2893 4.46957 22.5 5 22.5H19C19.5304 22.5 20.0391 22.2893 20.4142 21.9142C20.7893 21.5391 21 21.0304 21 20.5V15.5C21.2652 15.5 21.5196 15.3946 21.7071 15.2071C21.8946 15.0196 22 14.7652 22 14.5V12.562C22.0116 12.4068 21.9869 12.251 21.928 12.107C21.726 11.619 21.293 11.502 21 11.475ZM7 12.5C7 11.396 7.672 10.5 8.5 10.5C9.328 10.5 10 11.396 10 12.5C10 13.604 9.328 14.5 8.5 14.5C7.672 14.5 7 13.604 7 12.5ZM15.998 18.5C14.997 18.497 8 18.5 8 18.5V16.5C8 16.5 15.001 16.498 16.002 16.5L15.998 18.5ZM15.5 14.5C14.672 14.5 14 13.604 14 12.5C14 11.396 14.672 10.5 15.5 10.5C16.328 10.5 17 11.396 17 12.5C17 13.604 16.328 14.5 15.5 14.5Z" fill="#2F5DFF"/>
</svg>
