<svg width="23" height="23" viewBox="0 0 23 23" fill="none" xmlns="http://www.w3.org/2000/svg">
<path d="M11.21 0C8.99287 0 6.82554 0.657455 4.98206 1.88923C3.13859 3.121 1.70177 4.87176 0.853315 6.92012C0.00485712 8.96848 -0.217138 11.2224 0.215402 13.397C0.647942 15.5715 1.71559 17.5689 3.28334 19.1367C4.85108 20.7044 6.84851 21.7721 9.02304 22.2046C11.1976 22.6371 13.4515 22.4151 15.4999 21.5667C17.5482 20.7182 19.299 19.2814 20.5308 17.4379C21.7625 15.5945 22.42 13.4271 22.42 11.21C22.4169 8.23788 21.2348 5.3884 19.1332 3.2868C17.0316 1.1852 14.1821 0.0031386 11.21 0ZM7.32962 7.76077C7.58544 7.76077 7.83552 7.83663 8.04823 7.97875C8.26094 8.12088 8.42672 8.32289 8.52462 8.55924C8.62252 8.79559 8.64813 9.05566 8.59823 9.30657C8.54832 9.55748 8.42513 9.78795 8.24423 9.96884C8.06334 10.1497 7.83287 10.2729 7.58196 10.3228C7.33105 10.3727 7.07098 10.3471 6.83463 10.2492C6.59828 10.1513 6.39627 9.98555 6.25414 9.77284C6.11202 9.56013 6.03616 9.31005 6.03616 9.05423C6.03616 8.71118 6.17243 8.38218 6.415 8.13961C6.65757 7.89704 6.98657 7.76077 7.32962 7.76077ZM16.2674 14.2281C15.1583 16.1456 13.3151 17.2461 11.21 17.2461C9.10489 17.2461 7.26171 16.1467 6.15257 14.2281C6.09018 14.1299 6.04828 14.0202 6.02941 13.9054C6.01053 13.7907 6.01507 13.6733 6.04274 13.5603C6.0704 13.4474 6.12064 13.3412 6.19041 13.2481C6.26019 13.1551 6.34806 13.0771 6.44875 13.0189C6.54943 12.9607 6.66085 12.9235 6.7763 12.9095C6.89175 12.8954 7.00885 12.9049 7.12054 12.9373C7.23223 12.9697 7.33622 13.0244 7.42624 13.098C7.51626 13.1716 7.59045 13.2627 7.64436 13.3658C8.44954 14.7573 9.71498 15.5215 11.21 15.5215C12.705 15.5215 13.9705 14.7562 14.7756 13.3658C14.8296 13.2627 14.9037 13.1716 14.9938 13.098C15.0838 13.0244 15.1878 12.9697 15.2995 12.9373C15.4112 12.9049 15.5282 12.8954 15.6437 12.9095C15.7591 12.9235 15.8706 12.9607 15.9713 13.0189C16.0719 13.0771 16.1598 13.1551 16.2296 13.2481C16.2994 13.3412 16.3496 13.4474 16.3773 13.5603C16.4049 13.6733 16.4095 13.7907 16.3906 13.9054C16.3717 14.0202 16.3298 14.1299 16.2674 14.2281ZM15.0904 10.3477C14.8346 10.3477 14.5845 10.2718 14.3718 10.1297C14.1591 9.98758 13.9933 9.78556 13.8954 9.54921C13.7975 9.31287 13.7719 9.05279 13.8218 8.80189C13.8717 8.55098 13.9949 8.32051 14.1758 8.13961C14.3567 7.95872 14.5871 7.83553 14.838 7.78562C15.089 7.73571 15.349 7.76133 15.5854 7.85923C15.8217 7.95713 16.0237 8.12291 16.1659 8.33562C16.308 8.54833 16.3838 8.79841 16.3838 9.05423C16.3838 9.39728 16.2476 9.72627 16.005 9.96884C15.7624 10.2114 15.4334 10.3477 15.0904 10.3477Z" fill="#B6CDD5"/>
</svg>
