<svg width="20" height="23" viewBox="0 0 20 23" fill="none" xmlns="http://www.w3.org/2000/svg">
<path d="M5.49783 0C4.8284 0 4.28571 0.542685 4.28571 1.21212V7.19697C4.28571 7.86641 3.74303 8.40909 3.07359 8.40909H1.21212C0.542685 8.40909 0 8.95178 0 9.62121V21.2121C0 21.8816 0.542685 22.4242 1.21212 22.4242H18.7879C19.4573 22.4242 20 21.8816 20 21.2121V1.21212C20 0.542686 19.4573 0 18.7879 0H5.49783ZM15.7143 14.2045C15.7143 14.874 15.1716 15.4167 14.5022 15.4167H9.47295C8.97506 15.4167 8.57143 15.8203 8.57143 16.3182V16.3182C8.57143 17.0786 7.68798 17.4974 7.09929 17.0161L5.43356 15.6543C4.84034 15.1693 4.84034 14.2625 5.43356 13.7775L7.09929 12.4157C7.68798 11.9344 8.57143 12.3532 8.57143 13.1136V13.1136C8.57143 13.6115 8.97506 14.0152 9.47295 14.0152H13.0736C13.743 14.0152 14.2857 13.4725 14.2857 12.803V10.5249C14.2857 10.1304 14.6055 9.81061 15 9.81061V9.81061C15.3945 9.81061 15.7143 10.1304 15.7143 10.5249V14.2045Z" fill="#FF682F"/>
</svg>
