<svg width="18" height="16" viewBox="0 0 18 16" fill="none" xmlns="http://www.w3.org/2000/svg">
<path d="M16.3 1.71C15.841 1.246 15.2943 0.877954 14.6917 0.627299C14.0891 0.376643 13.4426 0.248387 12.79 0.25C12.1373 0.248387 11.4909 0.376643 10.8883 0.627299C10.2857 0.877954 9.73897 1.246 9.28 1.71L9 2L8.72 1.72C7.79171 0.791804 6.53273 0.270357 5.22 0.270357C3.90726 0.270357 2.64829 0.791804 1.72 1.72C0.803861 2.65464 0.29071 3.91124 0.29071 5.22C0.29071 6.52876 0.803861 7.78536 1.72 8.72L8.49 15.51C8.63062 15.6505 8.82125 15.7293 9.02 15.7293C9.21875 15.7293 9.40937 15.6505 9.55 15.51L16.32 8.72C17.2365 7.78229 17.7479 6.5221 17.7442 5.21091C17.7405 3.89972 17.2218 2.64246 16.3 1.71Z" fill="#FF682F"/>
</svg>
