<svg width="86" height="97" viewBox="0 0 96 108" fill="none" xmlns="http://www.w3.org/2000/svg">
<path d="M63.5482 9.04857L63.3661 9.09409L63.2009 9.18307C62.0233 9.81712 61.0072 11.0852 60.1275 12.4997C59.2148 13.9674 58.3146 15.8185 57.4441 17.8815C55.701 22.0124 54.0106 27.1525 52.5361 32.141C51.6094 35.2759 50.7637 38.3656 50.0394 41.1293C49.8251 36.9858 49.4897 32.0694 48.9661 27.1573C48.3073 20.9776 47.3428 14.7236 45.9181 10.0147C45.2092 7.67186 44.3543 5.59983 43.2942 4.0999C42.243 2.61265 40.7715 1.40383 38.8332 1.50584C37.0703 1.59861 35.7963 2.73931 34.9161 4.13364C34.0388 5.52347 33.4005 7.38404 32.9203 9.46606C31.9554 13.6498 31.5307 19.1819 31.3967 24.8323C31.3524 26.7013 31.3397 28.5932 31.3508 30.4661C30.519 27.7812 29.6054 25.3805 28.639 23.2788C27.1115 19.9569 25.425 17.3226 23.671 15.4944C21.9413 13.6916 19.9767 12.5037 17.912 12.5037C16.4322 12.5037 15.4727 13.4938 14.9184 14.5487C14.3736 15.5858 14.0526 16.956 13.8612 18.4571C13.4744 21.4909 13.5555 25.6029 13.9164 30.0771C14.1598 33.0946 14.5341 36.3176 14.9937 39.547C14.738 39.0451 14.4807 38.5612 14.2221 38.0967C12.9389 35.7917 11.5712 33.8668 10.1379 32.5958C8.71597 31.3346 6.957 30.4969 5.06899 31.0633C3.91599 31.4092 3.1763 32.2633 2.73351 33.2262C2.30413 34.1599 2.1027 35.2908 2.02469 36.4726C1.8681 38.8448 2.18559 41.8743 2.69362 45.0525C3.20521 48.253 3.92856 51.7106 4.62714 54.9677C4.72392 55.4189 4.82013 55.8659 4.91523 56.3077C5.51084 59.0747 6.0627 61.6385 6.43447 63.7623C6.95453 66.7333 7.2535 68.8423 7.49003 70.5107C8.03079 74.3253 8.24516 75.8375 10.029 80.0846C15.3595 92.7754 21.8651 103.102 36.1656 105.483C44.084 106.802 51.268 105.81 57.3754 102.23C63.4495 98.6688 68.2973 92.6426 71.7585 84.1745C73.3841 81.4808 80.055 73.3165 93.8282 62.6914L94.3466 62.2915L94.4059 61.6395C94.6357 59.1112 94.0156 57.1029 92.584 55.6734C91.2105 54.302 89.2955 53.6747 87.3625 53.4016C84.0195 52.9292 79.9031 53.4389 76.6048 53.8473C76.1302 53.9061 75.6726 53.9627 75.2366 54.0141C72.217 54.3697 69.4193 56.1789 67.1991 57.6147C67.1386 57.6539 67.0784 57.6928 67.0188 57.7314C65.8323 58.498 64.8179 59.1474 63.8967 59.5771C63.7921 59.6259 63.6915 59.6704 63.5949 59.7109C63.608 59.6507 63.6213 59.5894 63.6348 59.5269C63.9516 58.0623 64.3928 55.9742 64.8907 53.4767C65.886 48.4848 67.1108 41.8439 68.0227 35.2724C68.931 28.7269 69.5432 22.1527 69.2769 17.335C69.1456 14.9598 68.7937 12.8125 68.0236 11.2976C67.6291 10.5218 67.0686 9.79934 66.2614 9.35233C65.4198 8.88624 64.4825 8.81499 63.5482 9.04857Z" 
fill="#FF682F" stroke="white" stroke-width="3"/>
<path d="M64 59L54.5 66" stroke="white" stroke-width="2" stroke-linecap="round"/>
</svg>
