<svg width="84" height="94" viewBox="0 0 94 105" fill="none" xmlns="http://www.w3.org/2000/svg">
<path d="M28.707 100.014C18.8736 97.6802 -0.193045 84.5135 2.20695 50.5135V29.8494V15.0135C5.70695 11.3469 14.5069 6.21354 21.7069 15.0135C21.7069 15.0135 23.2069 5.51355 32.7069 5.51355C42.2069 5.51355 44.2069 15.0135 44.2069 15.0135C44.2069 15.0135 41.7069 2.51356 53.7069 2.01355C65.7069 1.51355 65.2069 15.0135 65.2069 15.0135C65.2069 15.0135 66.2069 2.51356 76.2069 3.01355C86.2069 3.51355 86.2069 15.0135 86.2069 15.0135V39.0136C93.3736 47.6802 99.8069 72.0135 68.2069 100.014C52.4557 103.688 43.7979 103.796 28.707 100.014Z" fill="#1733b0"/>
<path d="M21.7069 15.0135C14.5069 6.21354 5.70695 11.3469 2.20695 15.0135V29.8494M21.7069 15.0135C21.7069 15.0135 23.2069 5.51355 32.7069 5.51355C42.2069 5.51355 44.2069 15.0135 44.2069 15.0135M21.7069 15.0135V29.5136M44.2069 15.0135C44.2069 15.0135 41.7069 2.51356 53.7069 2.01355C65.7069 1.51355 65.2069 15.0135 65.2069 15.0135M44.2069 15.0135V29.8494M65.2069 15.0135C65.2069 15.0135 66.2069 2.51356 76.2069 3.01355C86.2069 3.51355 86.2069 15.0135 86.2069 15.0135V39.0136M65.2069 15.0135V29.5359M86.2069 39.0136L66.7069 29.5136L33.2069 30.0136C32.666 31.1293 32.1635 32.5001 31.8262 34C31.5414 35.2666 31.3745 36.6252 31.4018 38M86.2069 39.0136C93.3736 47.6802 99.8069 72.0135 68.2069 100.014C52.4557 103.688 43.7979 103.796 28.707 100.014C18.8736 97.6802 -0.193045 84.5135 2.20695 50.5135V29.8494M62.2069 58.0136C63.8069 54.0136 58.5403 51.0136 55.7069 50.0136H43.2069C34.1947 48.2612 31.5017 43.0228 31.4018 38M21.7069 29.5136C14.4228 34.4135 10.1812 34.8704 2.20695 29.8494M21.7069 29.5136C22.8453 36.84 25.189 38.3616 31.4018 38" stroke="white" stroke-width="3"/>
</svg>
