<svg width="62" height="96" viewBox="0 0 69 107" fill="none" xmlns="http://www.w3.org/2000/svg">
<path d="M2.44 44.8281C7.61462 39.6535 13.2205 41.594 15.3765 43.211C16.4546 39.9769 20.5512 34.4789 28.3131 38.3599C24.0009 29.1965 23.3453 6.57929 31.1072 2.69832C37.5755 -2.15297 43.9127 18.955 46.5 44.8281C47.039 32.4306 48.6882 5.69503 59.0374 4.40137C68.7398 1.16721 68.0909 31.0954 65 48C63.929 53.8577 60.6545 62.6158 60.6545 62.6158C66.0447 75.5524 68.093 102.072 33.1643 104.66C21.3058 105.199 -1.44096 96.5743 2.44 57.7646V44.8281Z" fill="#FF682F"/>
<path d="M15.3765 43.211C13.2205 41.594 7.61462 39.6535 2.44 44.8281V57.7646M15.3765 43.211C16.4546 39.9769 20.5512 34.4789 28.3131 38.3599M15.3765 43.211L16.9936 59.3817M28.3131 38.3599C24.0009 29.1965 23.3453 6.57929 31.1072 2.69832C37.5755 -2.15297 43.9127 18.955 46.5 44.8281C47.039 32.4306 48.6882 5.69503 59.0374 4.40137C68.7398 1.16721 68.0909 31.0954 65 48C63.929 53.8577 60.6545 62.6158 60.6545 62.6158M28.3131 38.3599C29.9302 42.133 32.4009 51.9432 31.1072 54.5305M60.6545 62.6158C56.3423 59.9207 47.0711 54.5305 44.4838 54.5305H23.4619C22.2326 55.9647 20.9565 58.0375 20.4863 60.1983M60.6545 62.6158C66.0447 75.5524 68.093 102.072 33.1643 104.66C21.3058 105.199 -1.44096 96.5743 2.44 57.7646M45.5 79C48.0873 77.7063 42.3277 71.2402 39.6326 69.0841H28.3131C21.0958 67.4803 19.7194 63.7223 20.4863 60.1983M2.44 57.7646C7.85146 66.2831 11.069 65.7369 16.9936 59.3817M16.9936 59.3817C18.1925 60.4624 18.9737 60.5663 20.4863 60.1983" stroke="white" stroke-width="3"/>
</svg>
